<svg xmlns="http://www.w3.org/2000/svg" xmlns:xlink="http://www.w3.org/1999/xlink" viewBox="0,0,256,256" width="48px" height="48px"><g fill="none" fill-rule="nonzero" stroke="none" stroke-width="1" stroke-linecap="butt" stroke-linejoin="miter" stroke-miterlimit="10" stroke-dasharray="" stroke-dashoffset="0" font-family="none" font-weight="none" font-size="none" text-anchor="none" style="mix-blend-mode: normal"><g transform="scale(5.33333,5.33333)"><path d="M28.001,19h-8.002c0,16.944 -10,9.713 -10,23c0,0 0.546,2 14.001,2c13.455,0 14.001,-2 14.001,-2c0,-13.287 -10,-6.056 -10,-23z" fill="#52bea0"></path><path d="M28.001,19h-8.002c0,1.127 -0.047,2.141 -0.13,3.067c1.869,0.18 5.76,0.63 5.76,3.765c0,2.702 -1.738,11.678 -6.629,12.168c-4.461,0.447 -8.273,-1.094 -8.273,-1.094c-0.455,1.274 -0.728,2.904 -0.728,5.094c0,0 0.546,2 14.001,2c13.455,0 14.001,-2 14.001,-2c0,-13.287 -10,-6.056 -10,-23z" fill="#00a6a6"></path><path d="M26.02,14h-2.02h-2.02c-1.986,1.334 -3.972,2.668 -5.957,4.001c0.03,0.428 0.113,0.997 0.332,1.634c0.197,0.573 0.446,1.032 0.663,1.371l6.984,-0.01l6.981,0.01c0.217,-0.339 0.466,-0.798 0.663,-1.371c0.219,-0.637 0.302,-1.206 0.332,-1.634c-1.986,-1.333 -3.972,-2.667 -5.958,-4.001z" fill="#52bea0"></path><path d="M26,20.999l1.084,0.483l0.976,-0.48l2.922,0.004c0.217,-0.339 0.466,-0.798 0.663,-1.371c0.219,-0.637 0.302,-1.206 0.332,-1.634c-1.986,-1.334 -3.972,-2.668 -5.957,-4.001h-2.02l3,4z" fill="#00a6a6"></path><circle cx="24" cy="10" r="7" fill="#52bea0"></circle><path d="M27.884,4.178c0.743,1.112 1.178,2.447 1.178,3.884c0,3.016 -1.907,5.586 -4.581,6.571l1.544,2.07c0.435,-0.131 1.04,0.059 1.434,-0.15c0.361,-0.191 0.515,-0.775 0.835,-1.024c1.646,-1.28 2.706,-3.281 2.706,-5.529c0,-2.429 -1.238,-4.567 -3.116,-5.822z" fill="#00a6a6"></path><path d="M24.683,4.727c0.372,0.973 -0.526,2.556 -2.006,3.536c-1.48,0.979 -2.982,0.984 -3.354,0.011c-0.372,-0.973 0.526,-2.556 2.006,-3.536c1.48,-0.98 2.981,-0.985 3.354,-0.011z" fill="#ffffff"></path></g></g></svg>